<svg xmlns="http://www.w3.org/2000/svg" xmlns:xlink="http://www.w3.org/1999/xlink" width="400" zoomAndPan="magnify" viewBox="0 0 375 374.999991" height="400" preserveAspectRatio="xMidYMid meet" version="1.0"><defs><clipPath id="9ddfa3197a"><path d="M 134.210938 109.160156 L 240.710938 109.160156 L 240.710938 239.660156 L 134.210938 239.660156 Z M 134.210938 109.160156 " clip-rule="nonzero"/></clipPath></defs><rect x="-37.5" width="450" fill="#ffffff" y="-37.499999" height="449.999989" fill-opacity="1"/><rect x="-37.5" width="450" fill="#ffffff" y="-37.499999" height="449.999989" fill-opacity="1"/><g clip-path="url(#9ddfa3197a)"><path fill="#100f0d" d="M 147.617188 187.078125 C 146.742188 185.140625 146.992188 182.886719 148.84375 181.902344 C 151.207031 180.644531 154.527344 183.390625 157.117188 184.574219 C 159.398438 185.621094 161.925781 185.960938 163.695312 187.625 C 165.949219 189.746094 165.554688 193.710938 166.144531 196.75 C 166.554688 199.292969 165.464844 203.550781 165.875 206.09375 C 164.632812 200.054688 161.914062 193.984375 159.332031 191.980469 C 156.566406 189.839844 149.117188 190.390625 147.617188 187.078125 Z M 150.941406 125.160156 C 154.386719 122.582031 157.320312 118.058594 161.671875 121.078125 C 164.628906 123.125 164.382812 128.464844 165.265625 132.140625 C 162.191406 133.039062 159.121094 134.101562 156.050781 135.339844 C 154.5625 133.925781 153.074219 132.511719 152.109375 130.394531 C 151.414062 128.871094 150.988281 126.984375 150.941406 125.160156 Z M 151.550781 121.019531 C 153.902344 118.683594 157.089844 115.003906 162.480469 114.964844 C 170.195312 114.90625 169.714844 125.363281 168.925781 131.152344 C 167.832031 131.425781 166.734375 131.71875 165.640625 132.03125 C 164.921875 127.613281 165.679688 120.8125 161.261719 119.21875 C 156.246094 117.410156 153.949219 121.953125 150.9375 124.71875 C 150.941406 124.15625 150.984375 123.597656 151.066406 123.070312 C 151.175781 122.375 151.339844 121.691406 151.550781 121.019531 Z M 212.429688 162.476562 C 214.761719 161.578125 217.308594 161.140625 219.488281 162.136719 C 222.707031 163.609375 223.734375 167.558594 224.09375 170.765625 C 224.222656 171.90625 224.210938 172.945312 224.074219 173.910156 C 224.359375 173.957031 224.597656 174.144531 224.714844 174.421875 C 224.796875 174.613281 224.878906 174.804688 224.953125 174.996094 C 225.378906 176.09375 224.84375 177.578125 224.320312 178.558594 C 223.980469 179.199219 223.523438 179.847656 222.992188 180.347656 C 222.460938 180.839844 221.75 181.25 221 181.097656 L 220.972656 181.089844 C 221.078125 182.433594 221.1875 183.71875 221.257812 184.902344 C 221.410156 187.320312 221.410156 189.328125 221.632812 191.445312 C 221.855469 193.566406 222.300781 195.796875 222.78125 196.949219 C 223.269531 198.101562 223.785156 198.175781 224.195312 197.542969 C 224.605469 196.914062 224.902344 195.574219 225.351562 193.824219 C 225.796875 192.078125 226.390625 189.921875 227.171875 187.726562 C 227.453125 186.933594 227.761719 186.136719 228.105469 185.316406 L 229.6875 176.058594 L 229.527344 182.289062 C 229.789062 181.785156 230.070312 181.265625 230.367188 180.738281 C 231.820312 178.171875 233.75 175.273438 235.5 171.519531 C 237.011719 168.261719 238.386719 164.367188 239.28125 160.769531 L 238.832031 152.253906 L 239.929688 157.765625 C 240.546875 154.328125 240.632812 151.3125 240.371094 148.351562 C 240.070312 145.007812 239.328125 141.734375 237.878906 138.386719 C 236.429688 135.039062 234.273438 131.621094 232.039062 128.90625 C 229.808594 126.191406 227.507812 124.183594 224.234375 122.285156 C 220.960938 120.390625 216.722656 118.605469 212.484375 117.042969 C 208.246094 115.480469 204.007812 114.144531 199.621094 113.027344 C 195.234375 111.914062 190.699219 111.023438 186.71875 110.5 C 180.011719 109.621094 171.097656 109.171875 164.425781 109.953125 C 159.039062 110.589844 154.15625 114.675781 152.035156 119.707031 C 154.113281 117.222656 157.046875 114.019531 162.324219 113.652344 C 171.699219 113 170.480469 124.769531 169.136719 131.101562 C 187.796875 126.519531 206.542969 128.050781 225.359375 134.65625 C 207.066406 130.78125 190.804688 128.75 180.363281 131.992188 C 180.363281 131.992188 180.363281 131.992188 180.8125 132.363281 C 181.253906 132.734375 182.148438 133.480469 183.113281 134.484375 C 184.082031 135.484375 185.121094 136.75 185.347656 138.164062 C 185.566406 139.578125 184.972656 141.136719 184.117188 142.738281 C 183.265625 144.335938 182.148438 145.972656 181.480469 147.386719 C 180.8125 148.796875 180.585938 149.988281 181.367188 151.214844 C 182.148438 152.441406 183.933594 153.707031 185.644531 154.894531 C 186.839844 155.730469 187.988281 156.53125 188.933594 157.378906 L 212.136719 162.230469 C 212.273438 162.257812 212.382812 162.351562 212.429688 162.476562 Z M 199.847656 169.847656 L 193.824219 168.722656 C 193.839844 168.371094 193.777344 167.941406 193.609375 167.234375 C 193.367188 166.246094 192.984375 165.039062 192.546875 163.835938 L 205.855469 164.886719 C 204.015625 165.800781 202.535156 166.835938 201.515625 167.742188 C 200.921875 168.273438 200.542969 168.578125 200.289062 169.007812 C 200.113281 169.304688 199.96875 169.582031 199.847656 169.847656 Z M 194.957031 139.292969 C 195.828125 144.804688 200.589844 145.445312 204.519531 149.695312 L 205.832031 151.351562 C 201.191406 147.105469 194.945312 146.328125 194.957031 139.292969 Z M 201.847656 140.691406 C 201.832031 147.726562 208.082031 148.507812 212.722656 152.75 L 211.40625 151.097656 C 207.480469 146.84375 202.714844 146.203125 201.847656 140.691406 Z M 210.136719 142.414062 C 211.007812 148.179688 215.988281 148.484375 219.632812 153.988281 L 220.902344 156.300781 L 219.328125 154.226562 C 215.652344 150.144531 210.152344 148.992188 210.136719 142.414062 Z M 186.355469 127.285156 C 189.238281 122.242188 186.300781 117.316406 182.363281 113.910156 C 185.226562 117.230469 188.097656 122.851562 186.355469 127.285156 Z M 188.015625 127.121094 C 189.753906 122.683594 186.886719 117.0625 184.019531 113.746094 C 187.960938 117.152344 190.894531 122.078125 188.015625 127.121094 Z M 210.269531 129.058594 C 211.34375 124.835938 210.007812 121.191406 207.484375 117.773438 C 211.253906 121.355469 212.511719 124.097656 210.269531 129.058594 Z M 222.050781 132.164062 C 222.859375 128.90625 222.136719 125.464844 220.660156 122.496094 C 223.417969 125.957031 224.054688 128.070312 222.050781 132.164062 Z M 198.4375 127.449219 C 199.460938 122.96875 198.078125 118.746094 195.164062 115.277344 C 199.386719 118.910156 200.589844 122.15625 198.4375 127.449219 Z M 146.984375 191.464844 C 147.777344 191.425781 148.503906 191.839844 149.148438 191.761719 C 151.671875 191.464844 152.019531 190.789062 155.082031 191.539062 C 156.628906 191.921875 158.203125 192.570312 159.699219 193.144531 C 154.625 191.769531 154.292969 191.394531 149.523438 192.761719 C 149.039062 192.902344 148.042969 192.808594 147.433594 192.773438 C 146.820312 193.695312 147.246094 194.625 147.152344 195.546875 C 146.257812 197.644531 144.328125 199.027344 143.601562 201.449219 C 143.984375 198.125 144.21875 194.515625 143.761719 191.339844 C 143.582031 190.070312 143.355469 188.34375 143.542969 187.074219 C 143.820312 185.242188 144.792969 182.027344 147.042969 181.992188 C 147.21875 181.988281 147.40625 182.058594 147.59375 182.164062 C 146.34375 183.503906 146.339844 185.589844 147.117188 187.304688 C 147.300781 187.714844 147.5625 188.070312 147.882812 188.382812 C 147.460938 188.574219 147.152344 189.035156 146.992188 189.535156 C 146.816406 190.09375 146.792969 190.734375 146.984375 191.464844 Z M 220.960938 180.167969 C 222.386719 178.574219 223.449219 176.855469 223.921875 174.765625 C 224 174.949219 224.074219 175.132812 224.148438 175.3125 C 224.757812 176.890625 222.296875 180.9375 220.960938 180.167969 Z M 209.203125 165.136719 C 216.085938 162.011719 221.113281 162.109375 221.179688 171.003906 C 221.214844 176.078125 216.117188 181.976562 212.136719 184.359375 C 207.394531 187.199219 207.140625 188.359375 202.085938 186.628906 C 203.253906 187.171875 203.894531 187.550781 205.160156 187.8125 C 207.851562 188.378906 214.703125 184.539062 216.542969 182.988281 C 220.625 179.550781 223.785156 176.542969 223.144531 170.871094 C 222.078125 161.417969 216.703125 160.804688 209.433594 165.003906 C 209.359375 165.046875 209.28125 165.089844 209.203125 165.136719 Z M 209.332031 169.484375 C 211.414062 166.90625 215.488281 164.199219 217.785156 167.886719 C 219.609375 170.820312 215.851562 176.1875 213.425781 177.734375 C 210.210938 179.789062 206.722656 179.410156 204.089844 182.089844 C 207.023438 179.859375 210.542969 180.695312 214.121094 179.078125 C 218.554688 177.074219 222.566406 171.019531 219.070312 166.917969 C 215.777344 163.050781 211.535156 165.773438 209.332031 169.484375 Z M 137.867188 161.796875 C 138.113281 161.175781 138.082031 160.523438 137.765625 159.847656 C 137.511719 160.523438 137.554688 161.175781 137.867188 161.796875 Z M 170.054688 158.746094 C 170.460938 157.84375 170.46875 156.902344 170.054688 155.921875 C 169.640625 156.902344 169.648438 157.84375 170.054688 158.746094 Z M 137.203125 161.75 C 137.160156 160.820312 137.117188 159.894531 137.078125 158.964844 C 140.121094 156.011719 145.171875 156.082031 149.621094 157.851562 C 151.363281 158.542969 154.125 157.621094 155.542969 156.789062 C 160.550781 153.851562 165.363281 153.742188 171.503906 154.445312 C 171.644531 154.46875 171.75 154.476562 171.839844 154.476562 L 172.59375 154.496094 L 172.703125 161.910156 L 171.976562 161.984375 C 171.847656 164.941406 171.253906 167.476562 170.117188 169.382812 C 168.175781 172.640625 162.6875 173.484375 159.339844 172.742188 C 156.210938 172.046875 154.925781 169.210938 154.074219 165.230469 C 153.277344 161.484375 151.550781 162.015625 150.910156 165.101562 C 149.683594 169.699219 147.296875 174.910156 142.011719 174.257812 C 138.71875 173.855469 138.148438 167.902344 137.769531 165.535156 C 137.546875 164.15625 137.359375 163.125 137.203125 161.75 Z M 173.066406 154.554688 L 173.175781 161.894531 L 208.367188 164.675781 C 208.445312 164.53125 208.566406 164.402344 208.722656 164.316406 C 209.707031 163.734375 210.847656 163.125 212.054688 162.628906 L 173.152344 154.496094 Z M 144.253906 201.230469 C 143.789062 203.335938 143.375 205.894531 142.9375 208.414062 C 142.402344 211.507812 141.832031 214.535156 141.074219 217.246094 C 140.464844 219.449219 139.722656 221.441406 138.859375 223.394531 L 142.929688 219.597656 L 136.636719 228.015625 C 136.023438 229.269531 135.460938 230.476562 135.085938 231.570312 C 134.390625 233.589844 134.324219 235.230469 134.863281 236.363281 C 135.398438 237.5 136.535156 238.132812 138.363281 238.667969 C 140.195312 239.203125 142.714844 239.648438 145.691406 239.589844 C 148.667969 239.539062 152.09375 238.984375 155.5625 238.136719 C 157.09375 237.757812 158.632812 237.324219 160.253906 236.820312 L 167.285156 227.753906 L 163.019531 235.914062 C 164.242188 235.496094 165.523438 235.042969 166.886719 234.542969 C 171.230469 232.957031 176.40625 230.941406 180.945312 228.921875 C 185.484375 226.902344 189.398438 224.882812 192.171875 222.421875 C 193.695312 221.070312 194.875 219.589844 195.875 217.976562 L 196.636719 204.535156 L 197.816406 214.222656 C 197.890625 214.058594 197.964844 213.886719 198.039062 213.714844 C 199.492188 210.371094 200.75 206.585938 200.972656 201.414062 C 201.195312 196.238281 200.375 189.679688 199.871094 184.757812 C 199.363281 179.835938 199.203125 176.554688 199.238281 174.285156 C 199.269531 172.308594 199.25 171.25 199.792969 169.972656 L 193.730469 169.246094 C 193.609375 169.664062 193.375 170.117188 193.085938 171.035156 C 192.300781 173.527344 190.722656 178.511719 188.765625 181.757812 C 187.34375 184.125 185.722656 185.570312 184.15625 186.636719 L 179.125 193.617188 L 182.367188 187.75 C 181.210938 188.421875 180.144531 188.992188 179.011719 189.535156 L 173.398438 196.957031 L 176.988281 190.457031 C 176.785156 190.546875 176.578125 190.636719 176.363281 190.726562 C 175.378906 191.140625 174.292969 191.578125 173.136719 191.980469 L 169.371094 196.957031 L 171.890625 192.398438 C 170.730469 192.761719 169.519531 193.082031 168.28125 193.308594 C 167.628906 193.425781 166.972656 193.519531 166.3125 193.601562 C 166.417969 194.660156 166.503906 195.703125 166.683594 196.644531 C 166.6875 196.652344 166.6875 196.65625 166.691406 196.664062 C 166.929688 198.152344 166.707031 199.976562 166.558594 201.476562 C 166.476562 202.296875 166.394531 203.121094 166.351562 203.945312 C 166.320312 204.617188 166.3125 205.339844 166.421875 206.003906 C 166.46875 206.300781 166.269531 206.582031 165.972656 206.636719 C 165.679688 206.691406 165.394531 206.496094 165.335938 206.207031 C 165.226562 205.671875 165.101562 205.140625 164.972656 204.609375 C 164.339844 202.058594 163.449219 199.46875 162.296875 197.101562 C 161.839844 196.167969 161.21875 195.019531 160.492188 194.027344 C 160.070312 194.054688 159.652344 194.085938 159.238281 194.117188 C 156.269531 194.363281 153.4375 194.835938 151.351562 194.964844 C 149.835938 195.058594 148.710938 194.972656 147.695312 194.835938 C 147.714844 195.089844 147.726562 195.34375 147.699219 195.605469 L 147.691406 195.6875 L 147.660156 195.765625 C 146.800781 197.777344 145.027344 199.179688 144.253906 201.230469 Z M 209.203125 165.136719 C 209.28125 165.089844 209.359375 165.046875 209.433594 165.003906 L 209.203125 165.136719 " fill-opacity="1" fill-rule="evenodd"/></g></svg>